<svg width="29" height="29" viewBox="0 0 29 29" fill="none" xmlns="http://www.w3.org/2000/svg">
<path d="M17.505 11.6075L17.505 2.76249C17.505 1.67709 16.6251 0.79718 15.5392 0.796738L13.5735 0.796739C12.4881 0.796739 11.6082 1.67664 11.6077 2.7625L11.6077 11.6075L2.76269 11.6075C1.67728 11.6075 0.797377 12.4874 0.796935 13.5733L0.796935 15.539C0.796935 16.6244 1.67684 17.5043 2.76269 17.5048L11.6077 17.5048L11.6077 26.3498C11.6077 27.4352 12.4876 28.3151 13.5735 28.3156L15.5392 28.3156C16.6246 28.3156 17.505 27.4352 17.505 26.3498L17.505 17.5048H26.35C27.4354 17.5048 28.3158 16.6244 28.3158 15.539V13.5733C28.3158 12.4879 27.4359 11.608 26.35 11.6075L17.505 11.6075Z" fill="#474747"/>
</svg>
