<svg width="25" height="25" viewBox="0 0 25 25" fill="none" xmlns="http://www.w3.org/2000/svg">
<g clip-path="url(#clip0)">
<path d="M12.5 0.771999C5.81265 0.771999 0.390625 6.0565 0.390625 12.57C0.390625 19.0873 5.81265 24.368 12.5 24.368C19.1874 24.368 24.6094 19.0873 24.6094 12.57C24.6094 6.0565 19.1874 0.771999 12.5 0.771999ZM12.5 22.0845C7.10293 22.0845 2.73438 17.83 2.73438 12.57C2.73438 7.31346 7.10313 3.05548 12.5 3.05548C17.8951 3.05548 22.2656 7.31184 22.2656 12.57C22.2656 17.8282 17.8989 22.0845 12.5 22.0845ZM17.7365 9.94399C17.7365 13.1338 14.2003 13.1829 14.2003 14.3617V14.6632C14.2003 14.9784 13.938 15.2341 13.6144 15.2341H11.3855C11.062 15.2341 10.7996 14.9784 10.7996 14.6632V14.2513C10.7996 12.5508 12.1229 11.871 13.1228 11.3248C13.9803 10.8564 14.5058 10.5379 14.5058 9.91763C14.5058 9.09719 13.4316 8.55263 12.5632 8.55263C11.431 8.55263 10.9083 9.07483 10.1735 9.97833C9.97539 10.2219 9.61392 10.2671 9.35972 10.0794L8.00112 9.07569C7.75176 8.89149 7.6959 8.54925 7.87202 8.29726C9.02568 6.64678 10.4951 5.71954 12.7829 5.71954C15.179 5.71954 17.7365 7.54176 17.7365 9.94399ZM14.5508 17.8981C14.5508 18.9998 13.6308 19.8962 12.5 19.8962C11.3692 19.8962 10.4492 18.9998 10.4492 17.8981C10.4492 16.7964 11.3692 15.9001 12.5 15.9001C13.6308 15.9001 14.5508 16.7964 14.5508 17.8981Z" fill="#474747"/>
</g>
<defs>
<clipPath id="clip0">
<rect width="25" height="24.3571" fill="white" transform="translate(0 0.391418)"/>
</clipPath>
</defs>
</svg>
