<svg width="25" height="23" viewBox="0 0 25 23" fill="none" xmlns="http://www.w3.org/2000/svg">
<path d="M20.8333 18.4398V19.1164C20.8333 20.2375 19.9006 21.1462 18.75 21.1462H2.08333C0.932726 21.1462 0 20.2375 0 19.1164V8.29104C0 7.17002 0.932726 6.26128 2.08333 6.26128H2.77778V8.29104H2.34375C2.27468 8.29104 2.20845 8.31777 2.15961 8.36535C2.11077 8.41293 2.08333 8.47747 2.08333 8.54476V18.8627C2.08333 18.93 2.11077 18.9945 2.15961 19.0421C2.20845 19.0897 2.27468 19.1164 2.34375 19.1164H18.4896C18.5586 19.1164 18.6249 19.0897 18.6737 19.0421C18.7226 18.9945 18.75 18.93 18.75 18.8627V18.4398H20.8333ZM22.6562 4.23151H6.51042C6.44135 4.23151 6.37511 4.25824 6.32627 4.30583C6.27744 4.35341 6.25 4.41794 6.25 4.48523V14.8032C6.25 14.8705 6.27744 14.935 6.32627 14.9826C6.37511 15.0302 6.44135 15.0569 6.51042 15.0569H22.6562C22.7253 15.0569 22.7916 15.0302 22.8404 14.9826C22.8892 14.935 22.9167 14.8705 22.9167 14.8032V4.48523C22.9167 4.41794 22.8892 4.35341 22.8404 4.30583C22.7916 4.25824 22.7253 4.23151 22.6562 4.23151ZM22.9167 2.20175C24.0673 2.20175 25 3.11049 25 4.23151V15.0569C25 16.1779 24.0673 17.0867 22.9167 17.0867H6.25C5.09939 17.0867 4.16667 16.1779 4.16667 15.0569V4.23151C4.16667 3.11049 5.09939 2.20175 6.25 2.20175H22.9167ZM11.4583 6.93786C11.4583 7.87202 10.681 8.62933 9.72222 8.62933C8.76341 8.62933 7.98611 7.87202 7.98611 6.93786C7.98611 6.00371 8.76341 5.24639 9.72222 5.24639C10.681 5.24639 11.4583 6.00371 11.4583 6.93786ZM8.33333 10.9974L10.0484 9.32643C10.2518 9.12827 10.5816 9.12827 10.785 9.32643L12.5 10.9974L16.9928 6.62008C17.1962 6.42192 17.526 6.42192 17.7294 6.62008L20.8333 9.64421V13.0271H8.33333V10.9974Z" fill="#474747"/>
</svg>
