<svg width="23" height="23" viewBox="0 0 23 23" fill="none" xmlns="http://www.w3.org/2000/svg">
<path d="M15.7264 11.5562L21.9808 5.30178C22.7483 4.53428 22.7483 3.2899 21.9808 2.52178L20.5908 1.13178C19.8233 0.364277 18.5789 0.364277 17.8108 1.13178L11.5564 7.38615L5.30202 1.13178C4.53452 0.364277 3.29015 0.364277 2.52202 1.13178L1.13202 2.52178C0.364522 3.28928 0.364522 4.53365 1.13202 5.30178L7.3864 11.5562L1.13202 17.8105C0.364522 18.578 0.364522 19.8224 1.13202 20.5905L2.52202 21.9805C3.28952 22.748 4.53452 22.748 5.30202 21.9805L11.5564 15.7262L17.8108 21.9805C18.5783 22.748 19.8233 22.748 20.5908 21.9805L21.9808 20.5905C22.7483 19.823 22.7483 18.5787 21.9808 17.8105L15.7264 11.5562Z" fill="#474747"/>
</svg>
