<?xml version="1.0" encoding="utf-8"?>
<!-- Generator: Adobe Illustrator 25.2.3, SVG Export Plug-In . SVG Version: 6.00 Build 0)  -->
<svg version="1.1" xmlns="http://www.w3.org/2000/svg" xmlns:xlink="http://www.w3.org/1999/xlink" x="0px" y="0px"
	 viewBox="0 0 435.91 435.91" style="enable-background:new 0 0 435.91 435.91;" xml:space="preserve">
<style type="text/css">
	.st0{display:none;}
	.st1{display:inline;}
	.st2{fill:#FFFFFF;}
	.st3{fill:#B8E082;}
	.st4{fill:#86DBC7;}
	.st5{fill:#98E7ED;}
	.st6{fill:#89C9F0;}
	.st7{fill:#C19FE8;}
	.st8{fill:#FFD95E;}
	.st9{fill:#B8D882;}
	.st10{fill:#5C7D38;}
	.st11{fill:#B58516;}
	.st12{fill:#F0AB62;}
	.st13{fill:#BD6200;}
	.st14{fill:#298A91;}
	.st15{fill:#398A77;}
	.st16{fill:#1D82BF;}
	.st17{fill:#8B58C4;}
	.st18{fill:#FF8F75;}
	.st19{fill:#A84028;}
</style>
<g id="Layer_9" class="st0">
	<g class="st1">
		<path class="st2" d="M217.77,435.57c-29.42,0-57.96-5.76-84.84-17.13c-25.96-10.98-49.26-26.69-69.28-46.7
			c-20.01-20.01-35.73-43.32-46.7-69.28C5.58,275.57-0.18,247.03-0.18,217.61c0-29.42,5.76-57.96,17.13-84.84
			c10.98-25.96,26.69-49.26,46.7-69.28c20.01-20.01,43.32-35.73,69.28-46.7c26.88-11.37,55.42-17.13,84.84-17.13
			c29.42,0,57.96,5.76,84.84,17.13c25.96,10.98,49.26,26.69,69.28,46.7c20.01,20.01,35.73,43.32,46.7,69.28
			c11.37,26.88,17.13,55.42,17.13,84.84c0,29.42-5.76,57.96-17.13,84.84c-10.98,25.96-26.69,49.26-46.7,69.28
			c-20.01,20.01-43.32,35.73-69.28,46.7C275.74,429.8,247.19,435.57,217.77,435.57z"/>
		<circle class="st3" cx="217.77" cy="217.61" r="205.3"/>
		<path class="st2" d="M217.77,327.26c-28.11,0-53.41-11.72-66.03-30.6c-1.36-2.04-0.82-4.8,1.22-6.16c2.04-1.36,4.8-0.82,6.16,1.22
			c10.82,16.19,33.84,26.65,58.65,26.65c24.8,0,47.82-10.46,58.65-26.65c1.36-2.04,4.12-2.59,6.16-1.22
			c2.04,1.36,2.59,4.12,1.22,6.16C271.19,315.54,245.88,327.26,217.77,327.26z"/>
		<g>
			<g>
				<g>
					<path class="st2" d="M101.3,167.98c-0.77,0-1.55-0.2-2.26-0.62c-2.11-1.25-2.81-3.97-1.56-6.08
						c6.09-10.29,16.23-17.75,27.82-20.46c2.39-0.56,4.78,0.93,5.34,3.32c0.56,2.39-0.93,4.78-3.32,5.34
						c-9.25,2.16-17.34,8.11-22.2,16.33C104.3,167.2,102.82,167.98,101.3,167.98z"/>
				</g>
			</g>
			<g>
				<g>
					<path class="st2" d="M334.11,167.98c-1.52,0-3-0.78-3.83-2.18c-4.86-8.22-12.95-14.17-22.2-16.33
						c-2.39-0.56-3.87-2.95-3.32-5.34c0.56-2.39,2.95-3.87,5.34-3.32c11.6,2.71,21.74,10.17,27.82,20.46
						c1.25,2.11,0.55,4.84-1.56,6.08C335.66,167.78,334.88,167.98,334.11,167.98z"/>
				</g>
			</g>
		</g>
		<g>
			<circle class="st2" cx="134.99" cy="219.74" r="25.46"/>
			<circle class="st2" cx="300.85" cy="219.74" r="25.46"/>
		</g>
	</g>
</g>
<g id="Layer_10" class="st0">
	<g class="st1">
		<path class="st2" d="M217.77,435.57c-29.42,0-57.96-5.76-84.84-17.13c-25.96-10.98-49.26-26.69-69.28-46.7
			c-20.01-20.01-35.73-43.32-46.7-69.28C5.58,275.57-0.18,247.03-0.18,217.61c0-29.42,5.76-57.96,17.13-84.84
			c10.98-25.96,26.69-49.26,46.7-69.28c20.01-20.01,43.32-35.73,69.28-46.7c26.88-11.37,55.42-17.13,84.84-17.13
			s57.96,5.76,84.84,17.13c25.96,10.98,49.26,26.69,69.28,46.7c20.01,20.01,35.73,43.32,46.7,69.28
			c11.37,26.88,17.13,55.42,17.13,84.84c0,29.42-5.76,57.96-17.13,84.84c-10.98,25.96-26.69,49.26-46.7,69.28
			c-20.01,20.01-43.32,35.73-69.28,46.7C275.74,429.8,247.19,435.57,217.77,435.57z"/>
		<circle class="st4" cx="217.77" cy="217.61" r="205.3"/>
		<path class="st2" d="M149.37,284.54c-3.38,0-5.74,3.4-4.51,6.55c11.38,29.14,39.74,49.79,72.91,49.79s61.53-20.65,72.91-49.79
			c1.23-3.15-1.13-6.55-4.51-6.55H149.37z"/>
		<g>
			<g>
				<g>
					<path class="st2" d="M101.37,167.91c-0.77,0-1.55-0.2-2.26-0.62c-2.11-1.25-2.81-3.97-1.56-6.08
						c6.09-10.29,16.23-17.75,27.82-20.46c2.39-0.56,4.78,0.93,5.34,3.32s-0.93,4.78-3.32,5.34c-9.25,2.16-17.34,8.11-22.2,16.33
						C104.37,167.13,102.89,167.91,101.37,167.91z"/>
				</g>
			</g>
			<g>
				<g>
					<path class="st2" d="M334.18,167.91c-1.52,0-3-0.78-3.83-2.18c-4.86-8.22-12.95-14.17-22.2-16.33
						c-2.39-0.56-3.87-2.95-3.32-5.34c0.56-2.39,2.95-3.87,5.34-3.32c11.6,2.71,21.74,10.17,27.82,20.46
						c1.25,2.11,0.55,4.84-1.56,6.08C335.73,167.71,334.95,167.91,334.18,167.91z"/>
				</g>
			</g>
		</g>
		<path class="st2" d="M321.52,219.59c1.15-2.24,2-4.7,2.46-7.34c2.17-12.5-5.38-24.84-17.49-28.61
			c-13.89-4.33-28.46,3.79-32.19,17.71c-0.47,1.75-0.74,3.51-0.83,5.25c-0.13,2.4,1.44,4.56,3.76,5.19l38.51,10.32
			C318.01,222.71,320.44,221.68,321.52,219.59z"/>
		<path class="st2" d="M162.34,206.71c-0.12-2.52-0.62-5.07-1.54-7.59c-4.37-11.91-17.08-18.82-29.46-16.03
			c-14.19,3.2-22.75,17.51-19.02,31.43c0.47,1.75,1.11,3.41,1.9,4.96c1.09,2.14,3.53,3.24,5.85,2.61l38.51-10.32
			C160.86,211.17,162.46,209.07,162.34,206.71z"/>
	</g>
</g>
<g id="Layer_11" class="st0">
	<g class="st1">
		<path class="st2" d="M217.77,435.57c-29.42,0-57.96-5.76-84.84-17.13c-25.96-10.98-49.26-26.69-69.28-46.7
			c-20.01-20.01-35.73-43.32-46.7-69.28C5.58,275.57-0.18,247.03-0.18,217.61c0-29.42,5.76-57.96,17.13-84.84
			c10.98-25.96,26.69-49.26,46.7-69.28c20.01-20.01,43.32-35.73,69.28-46.7c26.88-11.37,55.42-17.13,84.84-17.13
			c29.42,0,57.96,5.76,84.84,17.13c25.96,10.98,49.26,26.69,69.28,46.7c20.01,20.01,35.73,43.32,46.7,69.28
			c11.37,26.88,17.13,55.42,17.13,84.84c0,29.42-5.76,57.96-17.13,84.84c-10.98,25.96-26.69,49.26-46.7,69.28
			c-20.01,20.01-43.32,35.73-69.28,46.7C275.74,429.8,247.19,435.57,217.77,435.57z"/>
		<circle class="st5" cx="217.77" cy="217.61" r="205.3"/>
		<g>
			
				<ellipse transform="matrix(0.9239 -0.3827 0.3827 0.9239 -73.794 68.3506)" class="st2" cx="134.91" cy="219.67" rx="25.46" ry="25.46"/>
			
				<ellipse transform="matrix(0.9239 -0.3827 0.3827 0.9239 -61.1685 131.823)" class="st2" cx="300.78" cy="219.67" rx="25.46" ry="25.46"/>
		</g>
		<path class="st2" d="M184.24,297.54c-3.51,0-5.81,3.68-4.25,6.83c6.87,13.92,21.21,23.5,37.79,23.5s30.92-9.58,37.79-23.5
			c1.55-3.14-0.75-6.83-4.25-6.83H184.24z"/>
		<g>
			<g>
				<path class="st2" d="M88.52,191.16c-0.49,0-0.98-0.08-1.46-0.25c-2.32-0.81-3.54-3.34-2.73-5.66
					c3.94-11.29,12.41-20.6,23.25-25.54c2.23-1.02,4.87-0.03,5.88,2.2c1.02,2.23,0.03,4.87-2.2,5.88
					c-8.64,3.94-15.4,11.37-18.55,20.38C92.08,190.01,90.36,191.16,88.52,191.16z"/>
			</g>
			<g>
				<path class="st2" d="M347.17,191.16c-1.84,0-3.56-1.15-4.19-2.98c-3.14-9.01-9.9-16.44-18.55-20.38
					c-2.23-1.02-3.22-3.65-2.2-5.88c1.02-2.23,3.65-3.22,5.88-2.2c10.84,4.94,19.31,14.25,23.25,25.54
					c0.81,2.32-0.41,4.85-2.73,5.66C348.15,191.08,347.65,191.16,347.17,191.16z"/>
			</g>
		</g>
	</g>
</g>
<g id="Layer_12" class="st0">
	<g class="st1">
		<path class="st2" d="M217.77,435.57c-29.42,0-57.96-5.76-84.84-17.13c-25.96-10.98-49.26-26.69-69.28-46.7
			c-20.01-20.01-35.73-43.32-46.7-69.28C5.58,275.57-0.18,247.03-0.18,217.61c0-29.42,5.76-57.96,17.13-84.84
			c10.98-25.96,26.69-49.26,46.7-69.28c20.01-20.01,43.32-35.73,69.28-46.7c26.88-11.37,55.42-17.13,84.84-17.13
			c29.42,0,57.96,5.76,84.84,17.13c25.96,10.98,49.26,26.69,69.28,46.7c20.01,20.01,35.73,43.32,46.7,69.28
			c11.37,26.88,17.13,55.42,17.13,84.84c0,29.42-5.76,57.96-17.13,84.84c-10.98,25.96-26.69,49.26-46.7,69.28
			c-20.01,20.01-43.32,35.73-69.28,46.7C275.74,429.8,247.19,435.57,217.77,435.57z"/>
		<circle class="st6" cx="217.77" cy="217.61" r="205.3"/>
		<g>
			<g>
				<g>
					<path class="st2" d="M101.19,177.24c-0.77,0-1.55-0.2-2.26-0.62c-2.11-1.25-2.81-3.97-1.56-6.08
						c6.09-10.29,16.23-17.75,27.82-20.46c2.39-0.56,4.78,0.93,5.34,3.32c0.56,2.39-0.93,4.78-3.32,5.34
						c-9.25,2.16-17.34,8.11-22.2,16.33C104.19,176.46,102.71,177.24,101.19,177.24z"/>
				</g>
			</g>
			<g>
				<g>
					<path class="st2" d="M334.01,177.24c-1.52,0-3-0.78-3.83-2.18c-4.86-8.22-12.95-14.17-22.2-16.33
						c-2.39-0.56-3.87-2.95-3.32-5.34c0.56-2.39,2.95-3.87,5.34-3.32c11.6,2.71,21.74,10.17,27.82,20.46
						c1.25,2.11,0.55,4.84-1.56,6.08C335.55,177.04,334.77,177.24,334.01,177.24z"/>
				</g>
			</g>
		</g>
		<g>
			<circle class="st2" cx="134.91" cy="219.67" r="25.46"/>
			<circle class="st2" cx="300.78" cy="219.67" r="25.46"/>
		</g>
		<ellipse class="st2" cx="217.47" cy="323.78" rx="29.99" ry="34.43"/>
	</g>
</g>
<g id="Layer_13" class="st0">
	<g class="st1">
		<path class="st2" d="M217.77,435.57c-29.42,0-57.96-5.76-84.84-17.13c-25.96-10.98-49.26-26.69-69.28-46.7
			c-20.01-20.01-35.73-43.32-46.7-69.28C5.58,275.57-0.18,247.03-0.18,217.61c0-29.42,5.76-57.96,17.13-84.84
			c10.98-25.96,26.69-49.26,46.7-69.28c20.01-20.01,43.32-35.73,69.28-46.7c26.88-11.37,55.42-17.13,84.84-17.13
			s57.96,5.76,84.84,17.13c25.96,10.98,49.26,26.69,69.28,46.7c20.01,20.01,35.73,43.32,46.7,69.28
			c11.37,26.88,17.13,55.42,17.13,84.84c0,29.42-5.76,57.96-17.13,84.84c-10.98,25.96-26.69,49.26-46.7,69.28
			c-20.01,20.01-43.32,35.73-69.28,46.7C275.74,429.8,247.19,435.57,217.77,435.57z"/>
		<circle class="st7" cx="217.77" cy="217.61" r="205.3"/>
		<path class="st2" d="M173.35,342.91c-24.83,0-36.22-31.08-17.16-46.98c16.68-13.92,38.15-22.29,61.58-22.29s44.9,8.37,61.58,22.29
			c19.06,15.9,7.67,46.98-17.16,46.98H173.35z"/>
		<g>
			<g>
				<g>
					<path class="st2" d="M101.37,143.92c-0.77,0-1.55-0.2-2.26-0.62c-2.11-1.25-2.81-3.97-1.56-6.08
						c6.08-10.29,16.23-17.75,27.82-20.46c2.39-0.56,4.78,0.93,5.34,3.32c0.56,2.39-0.93,4.78-3.32,5.34
						c-9.25,2.16-17.34,8.11-22.2,16.33C104.37,143.14,102.89,143.92,101.37,143.92z"/>
				</g>
			</g>
			<g>
				<g>
					<path class="st2" d="M334.18,143.92c-1.52,0-3-0.78-3.83-2.18c-4.86-8.22-12.95-14.17-22.2-16.33
						c-2.39-0.56-3.87-2.95-3.32-5.34c0.56-2.39,2.95-3.87,5.34-3.32c11.6,2.71,21.74,10.17,27.82,20.46
						c1.25,2.11,0.55,4.84-1.56,6.09C335.73,143.72,334.95,143.92,334.18,143.92z"/>
				</g>
			</g>
		</g>
		<g>
			<circle class="st2" cx="135.06" cy="195.68" r="25.46"/>
			<circle class="st2" cx="300.92" cy="195.68" r="25.46"/>
		</g>
	</g>
</g>
<g id="Layer_14">
	<g>
		<path class="st2" d="M217.77,435.57c-29.42,0-57.96-5.76-84.84-17.13c-25.96-10.98-49.26-26.69-69.28-46.7
			c-20.01-20.01-35.73-43.32-46.7-69.28C5.58,275.57-0.18,247.03-0.18,217.61c0-29.42,5.76-57.96,17.13-84.84
			c10.98-25.96,26.69-49.26,46.7-69.28c20.01-20.01,43.32-35.73,69.28-46.7c26.88-11.37,55.42-17.13,84.84-17.13
			s57.96,5.76,84.84,17.13c25.96,10.98,49.26,26.69,69.28,46.7c20.01,20.01,35.73,43.32,46.7,69.28
			c11.37,26.88,17.13,55.42,17.13,84.84c0,29.42-5.76,57.96-17.13,84.84c-10.98,25.96-26.69,49.26-46.7,69.28
			c-20.01,20.01-43.32,35.73-69.28,46.7C275.74,429.8,247.19,435.57,217.77,435.57z"/>
		<circle class="st8" cx="217.77" cy="217.61" r="205.3"/>
		<path class="st2" d="M280.12,316.16c-1.43,0-2.84-0.69-3.7-1.97c-10.82-16.19-33.84-26.65-58.65-26.65s-47.82,10.46-58.65,26.65
			c-1.36,2.04-4.12,2.59-6.16,1.22c-2.04-1.36-2.59-4.12-1.22-6.16c12.62-18.87,37.92-30.6,66.03-30.6
			c28.11,0,53.41,11.72,66.03,30.6c1.36,2.04,0.82,4.8-1.22,6.16C281.82,315.91,280.96,316.16,280.12,316.16z"/>
		<g>
			<g>
				<g>
					<path class="st2" d="M126.32,140.7c0.77,0,1.55,0.2,2.26,0.62c2.11,1.25,2.81,3.97,1.56,6.08
						c-6.09,10.29-16.23,17.75-27.82,20.46c-2.39,0.56-4.78-0.93-5.34-3.32c-0.56-2.39,0.93-4.78,3.32-5.34
						c9.25-2.16,17.34-8.11,22.2-16.33C123.32,141.48,124.8,140.7,126.32,140.7z"/>
				</g>
			</g>
			<g>
				<g>
					<path class="st2" d="M309.09,140.7c1.52,0,3,0.78,3.83,2.18c4.86,8.22,12.95,14.17,22.2,16.33c2.39,0.56,3.87,2.95,3.32,5.34
						c-0.56,2.39-2.95,3.88-5.34,3.32c-11.6-2.71-21.74-10.17-27.82-20.46c-1.25-2.11-0.55-4.84,1.56-6.08
						C307.55,140.9,308.33,140.7,309.09,140.7z"/>
				</g>
			</g>
		</g>
		<path class="st2" d="M159.66,213.54c0.54-2.46,0.71-5.06,0.47-7.73c-1.14-12.64-11.63-22.6-24.31-23.11
			c-14.54-0.58-26.51,11.03-26.51,25.44c0,1.81,0.19,3.58,0.55,5.29c0.5,2.35,2.57,4.04,4.97,4.04h39.87
			C157.07,217.46,159.15,215.84,159.66,213.54z"/>
		<path class="st2" d="M325.52,213.54c0.54-2.46,0.71-5.06,0.47-7.73c-1.14-12.64-11.63-22.6-24.31-23.11
			c-14.54-0.58-26.51,11.03-26.51,25.44c0,1.81,0.19,3.58,0.55,5.29c0.5,2.35,2.57,4.04,4.97,4.04h39.87
			C322.93,217.46,325.02,215.84,325.52,213.54z"/>
	</g>
</g>
<g id="Layer_1" class="st0">
	<g class="st1">
		<path class="st2" d="M217.96,435.91c-29.42,0-57.96-5.76-84.84-17.13c-25.96-10.98-49.26-26.69-69.28-46.7
			c-20.01-20.01-35.73-43.32-46.7-69.28C5.76,275.92,0,247.38,0,217.96c0-29.42,5.76-57.96,17.13-84.84
			c10.98-25.96,26.69-49.26,46.7-69.28c20.01-20.01,43.32-35.73,69.28-46.7C159.99,5.76,188.54,0,217.96,0
			c29.42,0,57.96,5.76,84.84,17.13c25.96,10.98,49.26,26.69,69.28,46.7c20.01,20.01,35.73,43.32,46.7,69.28
			c11.37,26.88,17.13,55.42,17.13,84.84c0,29.42-5.76,57.96-17.13,84.84c-10.98,25.96-26.69,49.26-46.7,69.28
			c-20.01,20.01-43.32,35.73-69.28,46.7C275.92,430.15,247.38,435.91,217.96,435.91z"/>
		<circle class="st9" cx="217.96" cy="217.96" r="205.3"/>
		<path class="st10" d="M217.96,327.61c-28.11,0-53.41-11.72-66.03-30.6c-1.36-2.04-0.82-4.8,1.22-6.16
			c2.04-1.36,4.8-0.82,6.16,1.22c10.82,16.19,33.84,26.65,58.65,26.65c24.8,0,47.82-10.46,58.65-26.65
			c1.36-2.04,4.12-2.59,6.16-1.22c2.04,1.36,2.59,4.12,1.22,6.16C271.37,315.89,246.07,327.61,217.96,327.61z"/>
		<g>
			<g>
				<g>
					<path class="st10" d="M101.48,168.33c-0.77,0-1.55-0.2-2.26-0.62c-2.11-1.25-2.81-3.97-1.56-6.08
						c6.09-10.29,16.23-17.75,27.82-20.46c2.39-0.56,4.78,0.93,5.34,3.32c0.56,2.39-0.93,4.78-3.32,5.34
						c-9.25,2.16-17.34,8.11-22.2,16.33C104.48,167.55,103,168.33,101.48,168.33z"/>
				</g>
			</g>
			<g>
				<g>
					<path class="st10" d="M334.3,168.33c-1.52,0-3-0.78-3.83-2.18c-4.86-8.22-12.95-14.17-22.2-16.33
						c-2.39-0.56-3.87-2.95-3.32-5.34c0.56-2.39,2.95-3.87,5.34-3.32c11.6,2.71,21.74,10.17,27.82,20.46
						c1.25,2.11,0.55,4.84-1.56,6.08C335.84,168.13,335.06,168.33,334.3,168.33z"/>
				</g>
			</g>
		</g>
		<g>
			<circle class="st10" cx="135.17" cy="220.09" r="25.46"/>
			<circle class="st10" cx="301.03" cy="220.09" r="25.46"/>
		</g>
	</g>
</g>
<g id="Layer_2" class="st0">
	<g class="st1">
		<path class="st2" d="M217.77,435.57c-29.42,0-57.96-5.76-84.84-17.13c-25.96-10.98-49.26-26.69-69.28-46.7
			c-20.01-20.01-35.73-43.32-46.7-69.28C5.58,275.57-0.18,247.03-0.18,217.61c0-29.42,5.76-57.96,17.13-84.84
			c10.98-25.96,26.69-49.26,46.7-69.28c20.01-20.01,43.32-35.73,69.28-46.7c26.88-11.37,55.42-17.13,84.84-17.13
			s57.96,5.76,84.84,17.13c25.96,10.98,49.26,26.69,69.28,46.7c20.01,20.01,35.73,43.32,46.7,69.28
			c11.37,26.88,17.13,55.42,17.13,84.84c0,29.42-5.76,57.96-17.13,84.84c-10.98,25.96-26.69,49.26-46.7,69.28
			c-20.01,20.01-43.32,35.73-69.28,46.7C275.74,429.8,247.19,435.57,217.77,435.57z"/>
		<circle class="st8" cx="217.77" cy="217.61" r="205.3"/>
		<path class="st11" d="M149.37,284.54c-3.38,0-5.74,3.4-4.51,6.55c11.38,29.14,39.74,49.79,72.91,49.79s61.53-20.65,72.91-49.79
			c1.23-3.15-1.13-6.55-4.51-6.55H149.37z"/>
		<g>
			<g>
				<g>
					<path class="st11" d="M101.37,167.91c-0.77,0-1.55-0.2-2.26-0.62c-2.11-1.25-2.81-3.97-1.56-6.08
						c6.09-10.29,16.23-17.75,27.82-20.46c2.39-0.56,4.78,0.93,5.34,3.32s-0.93,4.78-3.32,5.34c-9.25,2.16-17.34,8.11-22.2,16.33
						C104.37,167.13,102.89,167.91,101.37,167.91z"/>
				</g>
			</g>
			<g>
				<g>
					<path class="st11" d="M334.18,167.91c-1.52,0-3-0.78-3.83-2.18c-4.86-8.22-12.95-14.17-22.2-16.33
						c-2.39-0.56-3.87-2.95-3.32-5.34c0.56-2.39,2.95-3.87,5.34-3.32c11.6,2.71,21.74,10.17,27.82,20.46
						c1.25,2.11,0.55,4.84-1.56,6.08C335.73,167.71,334.95,167.91,334.18,167.91z"/>
				</g>
			</g>
		</g>
		<path class="st11" d="M321.52,219.59c1.15-2.24,2-4.7,2.46-7.34c2.17-12.5-5.38-24.84-17.49-28.61
			c-13.89-4.33-28.46,3.79-32.19,17.71c-0.47,1.75-0.74,3.51-0.83,5.25c-0.13,2.4,1.44,4.56,3.76,5.19l38.51,10.32
			C318.01,222.71,320.44,221.68,321.52,219.59z"/>
		<path class="st11" d="M162.34,206.71c-0.12-2.52-0.62-5.07-1.54-7.59c-4.37-11.91-17.08-18.82-29.46-16.03
			c-14.19,3.2-22.75,17.51-19.02,31.43c0.47,1.75,1.11,3.41,1.9,4.96c1.09,2.14,3.53,3.24,5.85,2.61l38.51-10.32
			C160.86,211.17,162.46,209.07,162.34,206.71z"/>
	</g>
</g>
<g id="Layer_3" class="st0">
	<g class="st1">
		<path class="st2" d="M217.77,435.57c-29.42,0-57.96-5.76-84.84-17.13c-25.96-10.98-49.26-26.69-69.28-46.7
			c-20.01-20.01-35.73-43.32-46.7-69.28C5.58,275.57-0.18,247.03-0.18,217.61c0-29.42,5.76-57.96,17.13-84.84
			c10.98-25.96,26.69-49.26,46.7-69.28c20.01-20.01,43.32-35.73,69.28-46.7c26.88-11.37,55.42-17.13,84.84-17.13
			c29.42,0,57.96,5.76,84.84,17.13c25.96,10.98,49.26,26.69,69.28,46.7c20.01,20.01,35.73,43.32,46.7,69.28
			c11.37,26.88,17.13,55.42,17.13,84.84c0,29.42-5.76,57.96-17.13,84.84c-10.98,25.96-26.69,49.26-46.7,69.28
			c-20.01,20.01-43.32,35.73-69.28,46.7C275.74,429.8,247.19,435.57,217.77,435.57z"/>
		<circle class="st12" cx="217.77" cy="217.61" r="205.3"/>
		<g>
			
				<ellipse transform="matrix(0.9239 -0.3827 0.3827 0.9239 -73.794 68.3506)" class="st13" cx="134.91" cy="219.67" rx="25.46" ry="25.46"/>
			
				<ellipse transform="matrix(0.9239 -0.3827 0.3827 0.9239 -61.1685 131.823)" class="st13" cx="300.78" cy="219.67" rx="25.46" ry="25.46"/>
		</g>
		<path class="st13" d="M184.24,297.54c-3.51,0-5.81,3.68-4.25,6.83c6.87,13.92,21.21,23.5,37.79,23.5s30.92-9.58,37.79-23.5
			c1.55-3.14-0.75-6.83-4.25-6.83H184.24z"/>
		<g>
			<g>
				<path class="st13" d="M88.52,191.16c-0.49,0-0.98-0.08-1.46-0.25c-2.32-0.81-3.54-3.34-2.73-5.66
					c3.94-11.29,12.41-20.6,23.25-25.54c2.23-1.02,4.87-0.03,5.88,2.2c1.02,2.23,0.03,4.87-2.2,5.88
					c-8.64,3.94-15.4,11.37-18.55,20.38C92.08,190.01,90.36,191.16,88.52,191.16z"/>
			</g>
			<g>
				<path class="st13" d="M347.17,191.16c-1.84,0-3.56-1.15-4.19-2.98c-3.14-9.01-9.9-16.44-18.55-20.38
					c-2.23-1.02-3.22-3.65-2.2-5.88c1.02-2.23,3.65-3.22,5.88-2.2c10.84,4.94,19.31,14.25,23.25,25.54
					c0.81,2.32-0.41,4.85-2.73,5.66C348.15,191.08,347.65,191.16,347.17,191.16z"/>
			</g>
		</g>
	</g>
</g>
<g id="Layer_4" class="st0">
	<g class="st1">
		<path class="st2" d="M217.77,435.57c-29.42,0-57.96-5.76-84.84-17.13c-25.96-10.98-49.26-26.69-69.28-46.7
			c-20.01-20.01-35.73-43.32-46.7-69.28C5.58,275.57-0.18,247.03-0.18,217.61c0-29.42,5.76-57.96,17.13-84.84
			c10.98-25.96,26.69-49.26,46.7-69.28c20.01-20.01,43.32-35.73,69.28-46.7c26.88-11.37,55.42-17.13,84.84-17.13
			c29.42,0,57.96,5.76,84.84,17.13c25.96,10.98,49.26,26.69,69.28,46.7c20.01,20.01,35.73,43.32,46.7,69.28
			c11.37,26.88,17.13,55.42,17.13,84.84c0,29.42-5.76,57.96-17.13,84.84c-10.98,25.96-26.69,49.26-46.7,69.28
			c-20.01,20.01-43.32,35.73-69.28,46.7C275.74,429.8,247.19,435.57,217.77,435.57z"/>
		<circle class="st5" cx="217.77" cy="217.61" r="205.3"/>
		<g>
			<g>
				<g>
					<path class="st14" d="M101.19,177.24c-0.77,0-1.55-0.2-2.26-0.62c-2.11-1.25-2.81-3.97-1.56-6.08
						c6.09-10.29,16.23-17.75,27.82-20.46c2.39-0.56,4.78,0.93,5.34,3.32c0.56,2.39-0.93,4.78-3.32,5.34
						c-9.25,2.16-17.34,8.11-22.2,16.33C104.19,176.46,102.71,177.24,101.19,177.24z"/>
				</g>
			</g>
			<g>
				<g>
					<path class="st14" d="M334.01,177.24c-1.52,0-3-0.78-3.83-2.18c-4.86-8.22-12.95-14.17-22.2-16.33
						c-2.39-0.56-3.87-2.95-3.32-5.34c0.56-2.39,2.95-3.87,5.34-3.32c11.6,2.71,21.74,10.17,27.82,20.46
						c1.25,2.11,0.55,4.84-1.56,6.08C335.55,177.04,334.77,177.24,334.01,177.24z"/>
				</g>
			</g>
		</g>
		<g>
			<circle class="st14" cx="134.91" cy="219.67" r="25.46"/>
			<circle class="st14" cx="300.78" cy="219.67" r="25.46"/>
		</g>
		<ellipse class="st14" cx="217.47" cy="323.78" rx="29.99" ry="34.43"/>
	</g>
</g>
<g id="Layer_5" class="st0">
	<g class="st1">
		<path class="st2" d="M217.77,435.57c-29.42,0-57.96-5.76-84.84-17.13c-25.96-10.98-49.26-26.69-69.28-46.7
			c-20.01-20.01-35.73-43.32-46.7-69.28C5.58,275.57-0.18,247.03-0.18,217.61c0-29.42,5.76-57.96,17.13-84.84
			c10.98-25.96,26.69-49.26,46.7-69.28c20.01-20.01,43.32-35.73,69.28-46.7c26.88-11.37,55.42-17.13,84.84-17.13
			s57.96,5.76,84.84,17.13c25.96,10.98,49.26,26.69,69.28,46.7c20.01,20.01,35.73,43.32,46.7,69.28
			c11.37,26.88,17.13,55.42,17.13,84.84c0,29.42-5.76,57.96-17.13,84.84c-10.98,25.96-26.69,49.26-46.7,69.28
			c-20.01,20.01-43.32,35.73-69.28,46.7C275.74,429.8,247.19,435.57,217.77,435.57z"/>
		<circle class="st4" cx="217.77" cy="217.61" r="205.3"/>
		<path class="st15" d="M173.35,342.91c-24.83,0-36.22-31.08-17.16-46.98c16.68-13.92,38.15-22.29,61.58-22.29
			s44.9,8.37,61.58,22.29c19.06,15.9,7.67,46.98-17.16,46.98H173.35z"/>
		<g>
			<g>
				<g>
					<path class="st15" d="M101.37,143.92c-0.77,0-1.55-0.2-2.26-0.62c-2.11-1.25-2.81-3.97-1.56-6.08
						c6.08-10.29,16.23-17.75,27.82-20.46c2.39-0.56,4.78,0.93,5.34,3.32c0.56,2.39-0.93,4.78-3.32,5.34
						c-9.25,2.16-17.34,8.11-22.2,16.33C104.37,143.14,102.89,143.92,101.37,143.92z"/>
				</g>
			</g>
			<g>
				<g>
					<path class="st15" d="M334.18,143.92c-1.52,0-3-0.78-3.83-2.18c-4.86-8.22-12.95-14.17-22.2-16.33
						c-2.39-0.56-3.87-2.95-3.32-5.34c0.56-2.39,2.95-3.87,5.34-3.32c11.6,2.71,21.74,10.17,27.82,20.46
						c1.25,2.11,0.55,4.84-1.56,6.09C335.73,143.72,334.95,143.92,334.18,143.92z"/>
				</g>
			</g>
		</g>
		<g>
			<circle class="st15" cx="135.06" cy="195.68" r="25.46"/>
			<circle class="st15" cx="300.92" cy="195.68" r="25.46"/>
		</g>
	</g>
</g>
<g id="Layer_6" class="st0">
	<g class="st1">
		<path class="st2" d="M217.77,435.57c-29.42,0-57.96-5.76-84.84-17.13c-25.96-10.98-49.26-26.69-69.28-46.7
			c-20.01-20.01-35.73-43.32-46.7-69.28C5.58,275.57-0.18,247.03-0.18,217.61c0-29.42,5.76-57.96,17.13-84.84
			c10.98-25.96,26.69-49.26,46.7-69.28c20.01-20.01,43.32-35.73,69.28-46.7c26.88-11.37,55.42-17.13,84.84-17.13
			s57.96,5.76,84.84,17.13c25.96,10.98,49.26,26.69,69.28,46.7c20.01,20.01,35.73,43.32,46.7,69.28
			c11.37,26.88,17.13,55.42,17.13,84.84c0,29.42-5.76,57.96-17.13,84.84c-10.98,25.96-26.69,49.26-46.7,69.28
			c-20.01,20.01-43.32,35.73-69.28,46.7C275.74,429.8,247.19,435.57,217.77,435.57z"/>
		<circle class="st6" cx="217.77" cy="217.61" r="205.3"/>
		<path class="st16" d="M280.12,316.16c-1.43,0-2.84-0.69-3.7-1.97c-10.82-16.19-33.84-26.65-58.65-26.65s-47.82,10.46-58.65,26.65
			c-1.36,2.04-4.12,2.59-6.16,1.22c-2.04-1.36-2.59-4.12-1.22-6.16c12.62-18.87,37.92-30.6,66.03-30.6
			c28.11,0,53.41,11.72,66.03,30.6c1.36,2.04,0.82,4.8-1.22,6.16C281.82,315.91,280.96,316.16,280.12,316.16z"/>
		<g>
			<g>
				<g>
					<path class="st16" d="M126.32,140.7c0.77,0,1.55,0.2,2.26,0.62c2.11,1.25,2.81,3.97,1.56,6.08
						c-6.09,10.29-16.23,17.75-27.82,20.46c-2.39,0.56-4.78-0.93-5.34-3.32c-0.56-2.39,0.93-4.78,3.32-5.34
						c9.25-2.16,17.34-8.11,22.2-16.33C123.32,141.48,124.8,140.7,126.32,140.7z"/>
				</g>
			</g>
			<g>
				<g>
					<path class="st16" d="M309.09,140.7c1.52,0,3,0.78,3.83,2.18c4.86,8.22,12.95,14.17,22.2,16.33c2.39,0.56,3.87,2.95,3.32,5.34
						c-0.56,2.39-2.95,3.88-5.34,3.32c-11.6-2.71-21.74-10.17-27.82-20.46c-1.25-2.11-0.55-4.84,1.56-6.08
						C307.55,140.9,308.33,140.7,309.09,140.7z"/>
				</g>
			</g>
		</g>
		<path class="st16" d="M159.66,213.54c0.54-2.46,0.71-5.06,0.47-7.73c-1.14-12.64-11.63-22.6-24.31-23.11
			c-14.54-0.58-26.51,11.03-26.51,25.44c0,1.81,0.19,3.58,0.55,5.29c0.5,2.35,2.57,4.04,4.97,4.04h39.87
			C157.07,217.46,159.15,215.84,159.66,213.54z"/>
		<path class="st16" d="M325.52,213.54c0.54-2.46,0.71-5.06,0.47-7.73c-1.14-12.64-11.63-22.6-24.31-23.11
			c-14.54-0.58-26.51,11.03-26.51,25.44c0,1.81,0.19,3.58,0.55,5.29c0.5,2.35,2.57,4.04,4.97,4.04h39.87
			C322.93,217.46,325.02,215.84,325.52,213.54z"/>
	</g>
</g>
<g id="Layer_7" class="st0">
	<g class="st1">
		<path class="st2" d="M217.77,435.57c-29.42,0-57.96-5.76-84.84-17.13c-25.96-10.98-49.26-26.69-69.28-46.7
			c-20.01-20.01-35.73-43.32-46.7-69.28C5.58,275.57-0.18,247.03-0.18,217.61c0-29.42,5.76-57.96,17.13-84.84
			c10.98-25.96,26.69-49.26,46.7-69.28c20.01-20.01,43.32-35.73,69.28-46.7c26.88-11.37,55.42-17.13,84.84-17.13
			c29.42,0,57.96,5.76,84.84,17.13c25.96,10.98,49.26,26.69,69.28,46.7c20.01,20.01,35.73,43.32,46.7,69.28
			c11.37,26.88,17.13,55.42,17.13,84.84c0,29.42-5.76,57.96-17.13,84.84c-10.98,25.96-26.69,49.26-46.7,69.28
			c-20.01,20.01-43.32,35.73-69.28,46.7C275.74,429.8,247.19,435.57,217.77,435.57z"/>
		<circle class="st7" cx="217.77" cy="217.61" r="205.3"/>
		<path class="st17" d="M313.79,312.61c-1.34,0-2.66-0.6-3.53-1.75c-17.08-22.36-53.36-36.8-92.41-36.8s-75.33,14.45-92.41,36.8
			c-1.49,1.95-4.28,2.32-6.23,0.83c-1.95-1.49-2.32-4.28-0.83-6.23c9.18-12.02,23.21-22.13,40.58-29.25
			c17.62-7.22,37.99-11.04,58.9-11.04c20.91,0,41.28,3.82,58.9,11.04c17.36,7.12,31.39,17.23,40.58,29.25
			c1.49,1.95,1.12,4.74-0.83,6.23C315.68,312.31,314.73,312.6,313.79,312.61z"/>
		<g>
			<g>
				<g>
					<g>
						<path class="st17" d="M170.33,212.47c-0.33,0-0.67-0.04-1.01-0.12c-25.5-5.96-47.8-22.36-61.19-44.99
							c-1.25-2.11-0.55-4.84,1.56-6.08c2.11-1.25,4.84-0.55,6.08,1.56c12.16,20.56,32.41,35.46,55.56,40.86
							c2.39,0.56,3.87,2.95,3.32,5.34C174.18,211.08,172.35,212.47,170.33,212.47z"/>
					</g>
				</g>
			</g>
			<g>
				<g>
					<g>
						<path class="st17" d="M265.09,212.47c-2.02,0-3.84-1.38-4.32-3.43c-0.56-2.39,0.93-4.78,3.32-5.34
							c23.15-5.41,43.4-20.3,55.56-40.86c1.25-2.11,3.97-2.81,6.08-1.56c2.11,1.25,2.81,3.97,1.56,6.08
							c-13.38,22.64-35.68,39.04-61.19,44.99C265.76,212.43,265.42,212.47,265.09,212.47z"/>
					</g>
				</g>
			</g>
		</g>
		<path class="st17" d="M170.3,215.17h-48.87c-2.45,0-4.44-1.99-4.44-4.44c0-2.45,1.99-4.44,4.44-4.44h48.87
			c2.45,0,4.44,1.99,4.44,4.44C174.74,213.18,172.75,215.17,170.3,215.17z"/>
		<path class="st17" d="M313.78,215.17h-48.87c-2.45,0-4.44-1.99-4.44-4.44c0-2.45,1.99-4.44,4.44-4.44h48.87
			c2.45,0,4.44,1.99,4.44,4.44C318.23,213.18,316.24,215.17,313.78,215.17z"/>
	</g>
</g>
<g id="Layer_8" class="st0">
	<g class="st1">
		<path class="st2" d="M217.77,435.57c-29.42,0-57.96-5.76-84.84-17.13c-25.96-10.98-49.26-26.69-69.28-46.7
			c-20.01-20.01-35.73-43.32-46.7-69.28C5.58,275.57-0.18,247.03-0.18,217.61s5.76-57.96,17.13-84.84
			c10.98-25.96,26.69-49.26,46.7-69.28c20.01-20.01,43.32-35.73,69.28-46.7c26.88-11.37,55.42-17.13,84.84-17.13
			s57.96,5.76,84.84,17.13c25.96,10.98,49.26,26.69,69.28,46.7c20.01,20.01,35.73,43.32,46.7,69.28
			c11.37,26.88,17.13,55.42,17.13,84.84s-5.76,57.96-17.13,84.84c-10.98,25.96-26.69,49.26-46.7,69.28
			c-20.01,20.01-43.32,35.73-69.28,46.7C275.74,429.8,247.19,435.57,217.77,435.57z"/>
		<circle class="st18" cx="217.77" cy="217.61" r="205.3"/>
		<g>
			<g>
				<g>
					<g>
						<path class="st19" d="M170.4,212.47c-0.33,0-0.67-0.04-1.01-0.12c-25.5-5.96-47.8-22.36-61.19-44.99
							c-1.25-2.11-0.55-4.84,1.56-6.08c2.11-1.25,4.84-0.55,6.08,1.56c12.16,20.56,32.41,35.46,55.56,40.86
							c2.39,0.56,3.87,2.95,3.32,5.34C174.24,211.08,172.41,212.47,170.4,212.47z"/>
					</g>
				</g>
			</g>
			<g>
				<g>
					<g>
						<path class="st19" d="M265.15,212.47c-2.02,0-3.84-1.38-4.32-3.43c-0.56-2.39,0.93-4.78,3.32-5.34
							c23.15-5.41,43.4-20.3,55.56-40.86c1.25-2.11,3.97-2.81,6.08-1.56c2.11,1.25,2.81,3.97,1.56,6.08
							c-13.38,22.64-35.69,39.04-61.19,44.99C265.82,212.43,265.48,212.47,265.15,212.47z"/>
					</g>
				</g>
			</g>
		</g>
		<path class="st19" d="M280.12,316.16c-1.43,0-2.84-0.69-3.7-1.97c-10.82-16.19-33.84-26.65-58.65-26.65
			c-24.8,0-47.82,10.46-58.65,26.65c-1.36,2.04-4.12,2.59-6.16,1.22c-2.04-1.36-2.59-4.12-1.22-6.16
			c12.62-18.87,37.92-30.6,66.03-30.6c28.11,0,53.41,11.72,66.03,30.6c1.36,2.04,0.82,4.8-1.22,6.16
			C281.82,315.91,280.96,316.16,280.12,316.16z"/>
		<g>
			<path class="st19" d="M267.17,211.39c0.61,2.44,1.6,4.85,3,7.14c6.62,10.82,20.44,15.1,32.03,9.94
				c13.29-5.92,18.87-21.64,12.49-34.55c-0.8-1.63-1.76-3.13-2.84-4.49c-1.49-1.89-4.09-2.48-6.25-1.42l-35.74,17.67
				C267.75,206.73,266.6,209.1,267.17,211.39z"/>
			<path class="st19" d="M168.37,211.39c-0.61,2.44-1.6,4.85-3,7.14c-6.62,10.82-20.44,15.1-32.03,9.94
				c-13.29-5.92-18.87-21.64-12.49-34.55c0.8-1.63,1.76-3.13,2.84-4.49c1.49-1.89,4.09-2.48,6.25-1.42l35.74,17.67
				C167.79,206.73,168.94,209.1,168.37,211.39z"/>
		</g>
	</g>
</g>
</svg>
