<svg width="25" height="26" viewBox="0 0 25 26" fill="none" xmlns="http://www.w3.org/2000/svg">
<g clip-path="url(#clip0)">
<path d="M12.5 0.689972C5.59476 0.689972 0 6.14086 0 12.8685C0 19.5962 5.59476 25.0471 12.5 25.0471C19.4052 25.0471 25 19.5962 25 12.8685C25 6.14086 19.4052 0.689972 12.5 0.689972ZM12.5 22.69C6.94052 22.69 2.41935 18.2851 2.41935 12.8685C2.41935 7.45203 6.94052 3.04711 12.5 3.04711C18.0595 3.04711 22.5806 7.45203 22.5806 12.8685C22.5806 18.2851 18.0595 22.69 12.5 22.69ZM8.46774 12.0828C9.35988 12.0828 10.0806 11.3806 10.0806 10.5114C10.0806 9.6422 9.35988 8.93997 8.46774 8.93997C7.5756 8.93997 6.85484 9.6422 6.85484 10.5114C6.85484 11.3806 7.5756 12.0828 8.46774 12.0828ZM16.5323 8.93997C15.6401 8.93997 14.9194 9.6422 14.9194 10.5114C14.9194 11.3806 15.6401 12.0828 16.5323 12.0828C17.4244 12.0828 18.1452 11.3806 18.1452 10.5114C18.1452 9.6422 17.4244 8.93997 16.5323 8.93997ZM16.9355 16.0114H8.06452C7.39919 16.0114 6.85484 16.5418 6.85484 17.19C6.85484 17.8382 7.39919 18.3685 8.06452 18.3685H16.9355C17.6008 18.3685 18.1452 17.8382 18.1452 17.19C18.1452 16.5418 17.6008 16.0114 16.9355 16.0114Z" fill="#474747"/>
</g>
<defs>
<clipPath id="clip0">
<rect width="25" height="25.1429" fill="white" transform="translate(0 0.297119)"/>
</clipPath>
</defs>
</svg>
