<svg width="25" height="26" viewBox="0 0 25 26" fill="none" xmlns="http://www.w3.org/2000/svg">
<g clip-path="url(#clip0)">
<path d="M22.6562 0.882874H7.03125C5.73682 0.882874 4.6875 1.90521 4.6875 3.16636V5.44984H2.34375C1.04932 5.44984 0 6.47217 0 7.73332V22.9565C0 24.2177 1.04932 25.24 2.34375 25.24H17.9688C19.2632 25.24 20.3125 24.2177 20.3125 22.9565V20.6731H22.6562C23.9507 20.6731 25 19.6507 25 18.3896V3.16636C25 1.90521 23.9507 0.882874 22.6562 0.882874ZM17.6758 22.9565H2.63672C2.55902 22.9565 2.4845 22.9265 2.42956 22.8729C2.37462 22.8194 2.34375 22.7468 2.34375 22.6711V8.01876C2.34375 7.94305 2.37462 7.87045 2.42956 7.81692C2.4845 7.76339 2.55902 7.73332 2.63672 7.73332H4.6875V18.3896C4.6875 19.6507 5.73682 20.6731 7.03125 20.6731H17.9688V22.6711C17.9688 22.7468 17.9379 22.8194 17.8829 22.8729C17.828 22.9265 17.7535 22.9565 17.6758 22.9565ZM22.3633 18.3896H7.32422C7.24652 18.3896 7.172 18.3595 7.11706 18.306C7.06212 18.2524 7.03125 18.1798 7.03125 18.1041V3.45179C7.03125 3.37609 7.06212 3.30349 7.11706 3.24996C7.172 3.19643 7.24652 3.16636 7.32422 3.16636H22.3633C22.441 3.16636 22.5155 3.19643 22.5704 3.24996C22.6254 3.30349 22.6562 3.37609 22.6562 3.45179V18.1041C22.6562 18.1798 22.6254 18.2524 22.5704 18.306C22.5155 18.3595 22.441 18.3896 22.3633 18.3896Z" fill="#474747"/>
</g>
<defs>
<clipPath id="clip0">
<rect width="25" height="24.3571" fill="white" transform="translate(0 0.882874)"/>
</clipPath>
</defs>
</svg>
