<svg width="25" height="23" viewBox="0 0 25 23" fill="none" xmlns="http://www.w3.org/2000/svg">
<g clip-path="url(#clip0)">
<path d="M17.4609 15.2526L18.8498 13.913C19.0668 13.7037 19.4444 13.8502 19.4444 14.1516V20.2386C19.4444 21.348 18.5113 22.2481 17.3611 22.2481H2.08333C0.93316 22.2481 0 21.348 0 20.2386V5.50254C0 4.39315 0.93316 3.49308 2.08333 3.49308H13.954C14.2622 3.49308 14.4184 3.85311 14.2014 4.06661L12.8125 5.40626C12.7474 5.46905 12.6606 5.50254 12.5651 5.50254H2.08333V20.2386H17.3611V15.4871C17.3611 15.3992 17.3958 15.3154 17.4609 15.2526ZM24.2578 6.80451L12.8602 17.798L8.93663 18.2166C7.79948 18.338 6.8316 17.4128 6.95747 16.3076L7.39149 12.5231L18.7891 1.52967C19.783 0.570983 21.3889 0.570983 22.3785 1.52967L24.2535 3.33818C25.2474 4.29687 25.2474 5.85001 24.2578 6.80451ZM19.9696 8.0981L17.4479 5.66581L9.38368 13.4483L9.06684 16.182L11.901 15.8764L19.9696 8.0981ZM22.7821 4.76155L20.9071 2.95304C20.7292 2.78139 20.4384 2.78139 20.2648 2.95304L18.9236 4.24663L21.4453 6.67892L22.7865 5.38532C22.9601 5.2095 22.9601 4.9332 22.7821 4.76155Z" fill="#474747"/>
</g>
<defs>
<clipPath id="clip0">
<rect width="25" height="21.4343" fill="white" transform="translate(0 0.81427)"/>
</clipPath>
</defs>
</svg>
