<svg width="151" height="80" viewBox="0 0 151 80" fill="none" xmlns="http://www.w3.org/2000/svg">
<path d="M62.576 42.712C63.864 42.712 64.788 42.992 65.348 43.552C65.964 44.112 66.272 44.84 66.272 45.736C66.272 47.192 65.824 48.48 64.928 49.6C64.088 50.72 62.744 51.308 60.896 51.364C56.416 51.476 52.44 51.14 48.968 50.356C44.992 58.7 40.176 65.644 34.52 71.188C28.92 76.676 23.292 79.42 17.636 79.42C11.812 79.42 7.472 76.032 4.616 69.256C1.76 62.48 0.332 53.324 0.332 41.788C0.332 31.932 1.032 23.084 2.432 15.244C2.936 12.332 3.636 10.372 4.532 9.364C5.484 8.3 7.08 7.768 9.32 7.768C13.016 7.768 14.864 9.364 14.864 12.556C14.864 12.892 14.808 13.508 14.696 14.404C13.016 24.484 12.176 33.612 12.176 41.788C12.176 50.356 12.876 56.88 14.276 61.36C15.732 65.784 17.888 67.996 20.744 67.996C23.656 67.996 26.82 65.98 30.236 61.948C33.652 57.916 36.788 52.848 39.644 46.744C36.228 44.616 33.652 41.872 31.916 38.512C30.18 35.096 29.312 31.176 29.312 26.752C29.312 22.328 29.984 18.604 31.328 15.58C32.728 12.5 34.604 10.204 36.956 8.692C39.364 7.18 42.024 6.424 44.936 6.424C48.52 6.424 51.348 7.712 53.42 10.288C55.548 12.864 56.612 16.392 56.612 20.872C56.612 27.312 55.212 34.34 52.412 41.956C55.38 42.46 58.768 42.712 62.576 42.712ZM37.796 26.164C37.796 31.652 39.56 35.712 43.088 38.344C45.272 32.072 46.364 26.892 46.364 22.804C46.364 20.452 46.056 18.744 45.44 17.68C44.824 16.56 43.984 16 42.92 16C41.408 16 40.176 16.896 39.224 18.688C38.272 20.424 37.796 22.916 37.796 26.164ZM69.1024 34.312C66.7504 34.312 64.9864 33.78 63.8104 32.716C62.6344 31.596 62.0464 30.056 62.0464 28.096C62.0464 26.136 62.8024 24.512 64.3144 23.224C65.8824 21.88 67.8144 21.208 70.1104 21.208C72.1824 21.208 73.8624 21.712 75.1504 22.72C76.4384 23.728 77.0824 25.156 77.0824 27.004C77.0824 29.244 76.3544 31.036 74.8984 32.38C73.4424 33.668 71.5104 34.312 69.1024 34.312ZM68.4304 79.42C64.7904 79.42 62.1304 78.132 60.4504 75.556C58.8264 72.98 58.0144 69.564 58.0144 65.308C58.0144 62.788 58.3224 59.568 58.9384 55.648C59.6104 51.672 60.4504 47.976 61.4584 44.56C61.9624 42.768 62.6344 41.536 63.4744 40.864C64.3144 40.192 65.6584 39.856 67.5064 39.856C70.3624 39.856 71.7904 40.808 71.7904 42.712C71.7904 44.112 71.2584 47.36 70.1944 52.456C68.8504 58.616 68.1784 62.788 68.1784 64.972C68.1784 66.652 68.4024 67.94 68.8504 68.836C69.2984 69.732 70.0544 70.18 71.1184 70.18C72.1264 70.18 73.3864 69.48 74.8984 68.08C76.4104 66.68 78.4264 64.468 80.9464 61.444C81.6184 60.66 82.3744 60.268 83.2144 60.268C83.9424 60.268 84.5024 60.604 84.8944 61.276C85.3424 61.948 85.5664 62.872 85.5664 64.048C85.5664 66.288 85.0344 68.024 83.9704 69.256C78.4264 76.032 73.2464 79.42 68.4304 79.42ZM123.458 53.212C124.186 53.212 124.746 53.576 125.138 54.304C125.53 55.032 125.726 55.956 125.726 57.076C125.726 58.476 125.53 59.568 125.138 60.352C124.746 61.08 124.13 61.584 123.29 61.864C119.93 63.04 116.234 63.712 112.202 63.88C111.082 68.528 108.954 72.28 105.818 75.136C102.738 77.992 99.3223 79.42 95.5703 79.42C89.9143 79.42 85.7983 77.264 83.2223 72.952C80.6463 68.64 79.3583 62.396 79.3583 54.22C79.3583 46.996 80.2543 39.156 82.0463 30.7C83.8383 22.188 86.4423 14.964 89.8583 9.02799C93.3303 3.036 97.4463 0.0399952 102.206 0.0399952C104.782 0.0399952 106.854 1.16 108.422 3.4C109.99 5.584 110.774 8.44 110.774 11.968C110.774 16.56 109.906 21.124 108.17 25.66C106.434 30.196 103.55 34.956 99.5183 39.94C103.27 40.22 106.322 41.788 108.674 44.644C111.026 47.444 112.426 50.916 112.874 55.06C115.506 54.892 118.642 54.332 122.282 53.38C122.618 53.268 123.01 53.212 123.458 53.212ZM100.274 8.356C99.1543 8.356 97.9223 10.036 96.5783 13.396C95.2903 16.7 94.0863 21.208 92.9663 26.92C91.8463 32.632 91.0063 38.876 90.4463 45.652C94.1423 38.876 97.0823 32.912 99.2663 27.76C101.506 22.552 102.626 17.932 102.626 13.9C102.626 12.108 102.402 10.736 101.954 9.78399C101.562 8.832 101.002 8.356 100.274 8.356ZM95.9063 70.516C97.6423 70.516 99.1823 69.788 100.526 68.332C101.87 66.876 102.766 64.776 103.214 62.032C101.478 60.856 100.134 59.316 99.1823 57.412C98.2863 55.508 97.8383 53.492 97.8383 51.364C97.8383 50.58 97.9503 49.516 98.1743 48.172H97.9223C95.6263 48.172 93.6943 49.32 92.1263 51.616C90.6143 53.856 89.8583 56.88 89.8583 60.688C89.8583 63.88 90.4463 66.316 91.6223 67.996C92.8543 69.676 94.2823 70.516 95.9063 70.516ZM148.545 62.788C149.273 62.788 149.833 63.124 150.225 63.796C150.673 64.468 150.897 65.392 150.897 66.568C150.897 68.584 150.421 70.32 149.469 71.776C147.901 74.184 145.829 76.06 143.253 77.404C140.733 78.748 137.709 79.42 134.181 79.42C128.805 79.42 124.633 77.824 121.665 74.632C118.697 71.384 117.213 67.016 117.213 61.528C117.213 57.664 118.025 54.08 119.649 50.776C121.273 47.416 123.513 44.756 126.369 42.796C129.281 40.836 132.557 39.856 136.197 39.856C139.445 39.856 142.049 40.836 144.009 42.796C145.969 44.7 146.949 47.304 146.949 50.608C146.949 54.472 145.549 57.804 142.749 60.604C140.005 63.348 135.301 65.532 128.637 67.156C129.981 69.732 132.249 71.02 135.441 71.02C137.737 71.02 139.613 70.488 141.069 69.424C142.581 68.36 144.317 66.568 146.277 64.048C146.949 63.208 147.705 62.788 148.545 62.788ZM134.769 48.088C132.697 48.088 130.933 49.292 129.477 51.7C128.077 54.108 127.377 57.02 127.377 60.436V60.604C130.681 59.82 133.285 58.644 135.189 57.076C137.093 55.508 138.045 53.688 138.045 51.616C138.045 50.552 137.737 49.712 137.121 49.096C136.561 48.424 135.777 48.088 134.769 48.088Z" fill="#474747"/>
</svg>
